<svg width="29" height="28" viewBox="0 0 29 28" fill="none" xmlns="http://www.w3.org/2000/svg">
<g id="Group">
<g id="_Radial_Repeat_">
<path id="Vector" d="M18.9382 25.6779C27.5962 26.6622 28.521 14.7237 28.521 14.7237C28.521 14.7237 24.2117 20.2451 18.8496 19.7727C15.7209 19.4971 15.2093 16.7315 15.2093 16.7315C15.2093 16.7315 13.2711 25.0284 18.9382 25.6779Z" fill="#23242F"/>
</g>
<g id="_Radial_Repeat_-2">
<path id="Vector_2" d="M26.1977 9.58621C27.1816 0.925157 15.2473 0 15.2473 0C15.2473 0 20.7569 4.31084 20.2945 9.67478C20.0191 12.8046 17.2544 13.3164 17.2544 13.3164C17.2544 13.3164 25.5484 15.2553 26.1977 9.58621Z" fill="#23242F"/>
</g>
<g id="_Radial_Repeat_-3">
<path id="Vector_3" d="M10.1042 2.32232C1.44621 1.33811 0.521374 13.2766 0.521374 13.2766C0.521374 13.2766 4.8307 7.75516 10.1928 8.22758C13.3214 8.50316 13.8331 11.2688 13.8331 11.2688C13.8331 11.2688 15.7713 2.9719 10.1042 2.32232Z" fill="#23242F"/>
</g>
<g id="_Radial_Repeat_-4">
<path id="Vector_4" d="M2.85281 18.4143C1.86895 27.0754 13.8032 28.0005 13.8032 28.0005C13.8032 28.0005 8.28374 23.6897 8.756 18.3257C9.03148 15.1959 11.7961 14.6841 11.7961 14.6841C11.7961 14.6841 3.50216 12.7453 2.85281 18.4143Z" fill="#23242F"/>
</g>
</g>
</svg>
