<svg width="96" height="75" viewBox="0 0 96 75" fill="none" xmlns="http://www.w3.org/2000/svg">
<g id="noun-swimming-pool-5548206 1">
<g id="Group">
<g id="Group_2">
<path id="Vector" d="M3.90783 67.9789V71.3924H7.32129H88.6794H92.0928V67.9789V13.5959V10.1825H88.6794H7.32129H3.90783V13.5959V67.9789Z" stroke="#23242F" stroke-width="6.82692"/>
<path id="Vector_2" d="M21.4421 39.0093C20.496 39.0093 19.7287 38.2505 19.7287 37.3148V5.08353C19.7287 4.14816 18.9613 3.38902 18.0153 3.38902C17.0705 3.38902 16.3018 4.14918 16.3018 5.08353V8.3031C16.3018 9.23881 15.5346 9.99761 14.5884 9.99761C13.6423 9.99761 12.875 9.23881 12.875 8.3031V5.08353C12.875 2.28047 15.1809 0 18.0153 0C20.8554 0 23.1555 2.27488 23.1555 5.08353V37.3148C23.1555 38.2505 22.3883 39.0093 21.4421 39.0093Z" fill="#23242F"/>
<path id="Vector_3" d="M35.1492 40.2158C34.2028 40.2158 33.4357 39.457 33.4357 38.5213V5.08353C33.4357 4.14816 32.6683 3.38902 31.7223 3.38902C30.7775 3.38902 30.0089 4.14918 30.0089 5.08353V8.3031C30.0089 9.23881 29.2418 9.99761 28.2955 9.99761C27.3491 9.99761 26.582 9.23881 26.582 8.3031V5.08353C26.582 2.28047 28.888 0 31.7223 0C34.5625 0 36.8626 2.27488 36.8626 5.08353V38.5213C36.8626 39.4572 36.0955 40.2158 35.1492 40.2158Z" fill="#23242F"/>
<path id="Vector_4" d="M6.02148 54.5664C9.15482 54.5664 10.8463 55.6589 12.2054 56.5366C13.4327 57.3293 14.402 57.9554 16.5157 57.9554C18.6295 57.9554 19.5988 57.3293 20.8262 56.5366C22.1852 55.6589 23.8767 54.5664 27.0102 54.5664C30.1439 54.5664 31.8354 55.6589 33.1945 56.5366C34.4218 57.3295 35.3911 57.9554 37.5048 57.9554C39.6183 57.9554 40.5876 57.3295 41.8149 56.5368C43.174 55.6589 44.8655 54.5664 47.999 54.5664C51.1325 54.5664 52.824 55.6589 54.1831 56.5366C55.4104 57.3293 56.3797 57.9554 58.4935 57.9554C60.6072 57.9554 61.5767 57.3293 62.804 56.5366C64.1633 55.6589 65.8548 54.5664 68.9884 54.5664C72.1221 54.5664 73.8138 55.6589 75.173 56.5366C76.4004 57.3293 77.3698 57.9554 79.4839 57.9554C81.5979 57.9554 82.5673 57.3293 83.7947 56.5366C85.1539 55.6589 86.8456 54.5664 89.9793 54.5664" stroke="#23242F" stroke-width="2.04808"/>
<path id="Vector_5" d="M5.67285 45.7158C8.80619 45.7158 10.4977 46.8083 11.8568 47.686C13.0841 48.4787 14.0534 49.1048 16.1671 49.1048C18.2809 49.1048 19.2502 48.4787 20.4775 47.686C21.8366 46.8083 23.5281 45.7158 26.6616 45.7158C29.7953 45.7158 31.4868 46.8083 32.8459 47.686C34.0732 48.4789 35.0425 49.1048 37.1562 49.1048C39.2697 49.1048 40.239 48.4789 41.4663 47.6862C42.8254 46.8083 44.5169 45.7158 47.6504 45.7158C50.7839 45.7158 52.4754 46.8083 53.8345 47.686C55.0618 48.4787 56.0311 49.1048 58.1449 49.1048C60.2586 49.1048 61.2281 48.4787 62.4554 47.686C63.8146 46.8083 65.5061 45.7158 68.6398 45.7158C71.7735 45.7158 73.4652 46.8083 74.8244 47.686C76.0517 48.4787 77.0212 49.1048 79.1352 49.1048C81.2492 49.1048 82.2187 48.4787 83.446 47.686C84.8053 46.8083 86.4969 45.7158 89.6306 45.7158" stroke="#23242F" stroke-width="2.04808"/>
<path id="Vector_6" d="M5.67285 36.8655C8.80619 36.8655 10.4977 37.9579 11.8568 38.8357C13.0841 39.6284 14.0534 40.2545 16.1671 40.2545C18.2809 40.2545 19.2502 39.6284 20.4775 38.8357C21.8366 37.9579 23.5281 36.8655 26.6616 36.8655C29.7953 36.8655 31.4868 37.9579 32.8459 38.8357C34.0732 39.6286 35.0425 40.2545 37.1562 40.2545C39.2697 40.2545 40.239 39.6285 41.4663 38.8359C42.8254 37.9579 44.5169 36.8655 47.6504 36.8655C50.7839 36.8655 52.4754 37.9579 53.8345 38.8357C55.0618 39.6284 56.0311 40.2545 58.1449 40.2545C60.2586 40.2545 61.2281 39.6284 62.4554 38.8357C63.8146 37.9579 65.5061 36.8655 68.6398 36.8655C71.7735 36.8655 73.4652 37.9579 74.8244 38.8357C76.0517 39.6284 77.0212 40.2545 79.1352 40.2545C81.2492 40.2545 82.2187 39.6284 83.446 38.8357C84.8053 37.9579 86.4969 36.8655 89.6306 36.8655" stroke="#23242F" stroke-width="2.04808"/>
<path id="Vector_7" d="M34.2097 19.1153H22.1943C21.3649 19.1153 20.6924 18.504 20.6924 17.7499C20.6924 16.9958 21.3649 16.3845 22.1943 16.3845H34.2097C35.0392 16.3845 35.7116 16.9958 35.7116 17.7499C35.7116 18.504 35.0392 19.1153 34.2097 19.1153Z" fill="#23242F"/>
<path id="Vector_8" d="M34.2097 27.3077H22.1943C21.3649 27.3077 20.6924 26.6964 20.6924 25.9423C20.6924 25.1882 21.3649 24.5769 22.1943 24.5769H34.2097C35.0392 24.5769 35.7116 25.1882 35.7116 25.9423C35.7116 26.6964 35.0392 27.3077 34.2097 27.3077Z" fill="#23242F"/>
</g>
</g>
</g>
</svg>
