<svg width="126" height="86" viewBox="0 0 126 86" fill="none" xmlns="http://www.w3.org/2000/svg">
<g id="Klimatizace">
<g id="Group">
<g id="Vector">
<path fill-rule="evenodd" clip-rule="evenodd" d="M75.7774 56.7654C75.917 56.4401 76.1502 56.253 76.4755 56.2069C76.7074 56.1608 76.9406 56.2069 77.1738 56.3479C79.9666 58.0697 83.4115 59.4661 87.5057 60.5371C87.8311 60.5832 88.0643 60.7452 88.2039 61.0259C88.345 61.2591 88.3911 61.4909 88.345 61.7241C88.2514 62.0034 88.0657 62.2352 87.7864 62.4223C87.5532 62.5633 87.2977 62.5843 87.0184 62.4921C82.6421 61.4225 79.0128 59.9786 76.1264 58.1632C75.8472 58.0236 75.6838 57.8141 75.6363 57.5349C75.5916 57.2081 75.6377 56.9512 75.7774 56.7654ZM68.7269 44.8262C69.0048 44.7787 69.2617 44.8262 69.4949 44.9658C69.6806 45.1529 69.7979 45.3848 69.844 45.664C70.309 48.644 71.5434 51.2259 73.5431 53.4141C73.7302 53.6012 73.8224 53.8344 73.8224 54.1123C73.8224 54.3916 73.7065 54.6248 73.4733 54.8105C73.2876 54.9976 73.0544 55.0898 72.7751 55.0898C72.4958 55.0898 72.2403 54.9976 72.0071 54.8105C69.7253 52.2969 68.3289 49.3422 67.8178 45.9433C67.7718 45.664 67.8416 45.4308 68.0273 45.2451C68.213 44.9658 68.4462 44.8262 68.7269 44.8262ZM91.3473 51.11C91.5805 51.2022 91.7899 51.3893 91.9756 51.6672C92.0678 51.9004 92.0915 52.1573 92.0455 52.4366C91.9533 52.6684 91.7676 52.9016 91.4883 53.1348C91.209 53.227 90.9521 53.2507 90.7203 53.2046C88.5782 52.5064 86.8089 51.7147 85.4125 50.8307L83.1085 53.2046C82.9213 53.3917 82.7133 53.4839 82.4801 53.4839C82.2008 53.53 81.9676 53.4839 81.7819 53.3429C81.5948 53.2032 81.4565 52.9938 81.363 52.7145L79.3382 45.0343C79.2921 44.8025 79.3144 44.5693 79.408 44.3361C79.549 44.1042 79.7334 43.9409 79.9666 43.8473C80.1523 43.7077 80.3617 43.6839 80.5949 43.7775L88.2039 45.7311C88.4371 45.8232 88.6243 45.9643 88.7625 46.1514C88.9021 46.3832 88.9482 46.6401 88.9022 46.9194C88.9022 47.1065 88.8323 47.2922 88.6941 47.4766L86.8788 49.2933C88.1355 50.0404 89.6241 50.645 91.3473 51.11ZM119.834 52.8555C120.02 53.0887 120.113 53.3205 120.113 53.5537C120.159 53.833 120.089 54.0899 119.904 54.3217C119.718 54.5075 119.485 54.6248 119.206 54.6708C115.435 54.9501 111.967 55.1121 108.802 55.1596C108.477 55.1596 108.221 55.0674 108.034 54.8817C107.849 54.6485 107.755 54.4153 107.755 54.1835C107.755 53.8567 107.849 53.6012 108.034 53.4141C108.221 53.2284 108.453 53.1362 108.732 53.1362C111.898 53.044 115.342 52.8569 119.066 52.5776C119.347 52.5302 119.601 52.6223 119.834 52.8555ZM125.769 63.4682C125.676 63.7014 125.535 63.8871 125.35 64.0267L118.647 68.216C118.414 68.3556 118.181 68.4031 117.949 68.3556C117.669 68.3095 117.436 68.1936 117.251 68.0065C117.063 67.8194 116.971 67.6113 116.971 67.3781V64.6565C113.339 64.7962 109.919 64.8422 106.706 64.7962C106.381 64.7962 106.125 64.6789 105.938 64.4471C105.753 64.2613 105.659 64.0281 105.659 63.7489C105.659 63.4696 105.753 63.214 105.938 62.9808C106.171 62.7937 106.428 62.7015 106.706 62.7015C109.919 62.7015 113.315 62.6555 116.901 62.5619L116.83 59.42C116.83 59.1868 116.924 58.9536 117.11 58.7218C117.251 58.5347 117.459 58.4188 117.738 58.3727C117.971 58.3266 118.203 58.3727 118.436 58.5123L125.278 62.2128C125.51 62.305 125.674 62.4697 125.767 62.7015C125.862 62.9794 125.862 63.235 125.769 63.4682ZM6.93603 52.5762C10.6588 52.8555 14.1038 53.0426 17.268 53.1348C17.5473 53.1348 17.7805 53.227 17.9662 53.4127C18.1533 53.5998 18.2455 53.8539 18.2455 54.1821C18.2455 54.4139 18.1533 54.6471 17.9662 54.8803C17.7805 55.066 17.5473 55.1582 17.268 55.1582C14.0563 55.1121 10.5653 54.9501 6.79499 54.6694C6.51571 54.6234 6.28391 54.5061 6.09679 54.3203C5.91107 54.0885 5.83985 53.8316 5.88873 53.5523C5.88873 53.3191 6.00463 53.0873 6.23783 52.8541C6.42215 52.6223 6.65535 52.5302 6.93603 52.5762ZM8.26122 58.3727C8.5405 58.4188 8.7737 58.5347 8.95942 58.7218C9.10046 58.9536 9.16888 59.1868 9.16888 59.42L9.09906 62.5619C12.6822 62.6541 16.0811 62.7015 19.2928 62.7015C19.5721 62.7015 19.8276 62.7937 20.0608 62.9808C20.2479 63.214 20.3401 63.4696 20.3401 63.7489C20.3401 64.0281 20.2479 64.2613 20.0608 64.4471C19.8751 64.6789 19.6419 64.7962 19.3626 64.7962C16.1048 64.8422 12.6836 64.7962 9.09906 64.6565L9.02924 67.3781C9.02924 67.6113 8.93568 67.8194 8.74996 68.0065C8.56284 68.1936 8.35478 68.3095 8.12158 68.3556C7.8423 68.4031 7.58536 68.3556 7.35356 68.216L0.650817 64.0267C0.463699 63.8857 0.325454 63.7014 0.230499 63.4682C0.138336 63.235 0.138336 62.9794 0.230499 62.7002C0.324058 62.4684 0.487438 62.305 0.720637 62.2114L7.56302 58.5109C7.79622 58.3727 8.02942 58.3252 8.26122 58.3727ZM46.5925 44.3374C46.6847 44.5706 46.7084 44.8038 46.6623 45.0357L44.6389 52.7159C44.5454 52.9952 44.4295 53.206 44.2898 53.3443C44.0566 53.4853 43.8234 53.5314 43.5916 53.4853C43.3124 53.4853 43.1015 53.3931 42.9633 53.206L40.6578 50.8307C39.1692 51.7147 37.4 52.5064 35.3515 53.2046C35.0722 53.2507 34.7929 53.2283 34.5136 53.1348C34.2343 52.9016 34.071 52.6684 34.0235 52.4366C33.9313 52.1573 33.9537 51.9004 34.0933 51.6672C34.2343 51.3893 34.4424 51.2022 34.7217 51.11C36.3974 50.645 37.8636 50.039 39.1203 49.2947L37.3762 47.4794C37.1891 47.2936 37.097 47.1079 37.097 46.9222C37.0509 46.6429 37.097 46.386 37.2366 46.1542C37.3776 45.9671 37.5857 45.8274 37.865 45.7339L45.4056 43.7803C45.6374 43.6867 45.8706 43.7105 46.1038 43.8501C46.2895 43.9423 46.4529 44.1056 46.5925 44.3374ZM49.5948 56.2069C49.8741 56.253 50.0835 56.4401 50.2232 56.7654C50.3628 56.9512 50.4089 57.2067 50.3628 57.5335C50.3167 57.8127 50.1533 58.0236 49.8741 58.1618C46.9877 59.9772 43.357 61.4211 38.9807 62.4907C38.7028 62.5829 38.4459 62.5619 38.2127 62.4209C37.9334 62.2338 37.7477 62.002 37.6555 61.7227C37.608 61.4895 37.6555 61.2577 37.7952 61.0245C37.9348 60.7452 38.168 60.5832 38.4934 60.5357C42.5904 59.4647 46.0339 58.0683 48.8267 56.3465C49.0599 56.2069 49.3155 56.1608 49.5948 56.2069ZM61.6737 45.9433C61.6737 45.664 61.791 45.4308 62.0228 45.2451C62.2099 45.0594 62.4431 44.9658 62.721 44.9658C63.0002 44.9658 63.2572 45.0594 63.4904 45.2451C63.63 45.4769 63.6985 45.7339 63.6985 46.0131L63.5588 61.2339L66.3516 61.1641C66.5834 61.1641 66.8166 61.2339 67.0498 61.3722C67.1895 61.5132 67.3054 61.6975 67.3989 61.9307C67.445 62.21 67.3989 62.4418 67.2579 62.6289L63.5588 69.4727C63.4653 69.752 63.3019 69.9391 63.0687 70.0313C62.8369 70.1234 62.6037 70.1234 62.3705 70.0313C62.1387 69.9852 61.9516 69.8218 61.8133 69.5425L57.5543 62.8384C57.4146 62.608 57.3686 62.3748 57.4146 62.1416C57.4607 61.9098 57.5557 61.7227 57.6939 61.5844C57.8796 61.3973 58.1352 61.3051 58.4619 61.3051L61.534 61.2353L61.6737 45.9433ZM56.5768 44.9658C56.7625 44.8262 57.0181 44.7787 57.3448 44.8262C57.578 44.8262 57.7861 44.9658 57.9732 45.2451C58.1589 45.4308 58.2525 45.664 58.2525 45.9433C57.6939 49.3422 56.25 52.2969 53.9222 54.8105C53.7365 54.9976 53.5033 55.0898 53.224 55.0898C52.9447 55.0898 52.7129 54.9976 52.5258 54.8105C52.2926 54.6248 52.1767 54.3916 52.1767 54.1123C52.1767 53.8344 52.2689 53.6012 52.456 53.4141C54.4585 51.2273 55.6901 48.644 56.1565 45.664C56.2053 45.3848 56.3436 45.1529 56.5768 44.9658ZM77.6625 36.5874C77.8957 36.8206 78.0116 37.0775 78.0116 37.3554C78.0116 37.5886 77.8957 37.8218 77.6625 38.0536C77.4293 38.2407 77.1738 38.3329 76.8945 38.3329H47.4303C47.1511 38.3329 46.9179 38.2407 46.7321 38.0536C46.4989 37.8218 46.383 37.5886 46.383 37.3554C46.383 37.0775 46.4989 36.8206 46.7321 36.5874C46.9179 36.3542 47.1511 36.2383 47.4303 36.2383H76.8945C77.1738 36.2383 77.4293 36.3542 77.6625 36.5874ZM81.0139 27.7202V39.9388C81.106 41.5684 80.1523 42.3825 78.1512 42.3825H45.7547C43.7061 42.3825 42.7287 41.5684 42.8208 39.9388V27.7202C42.7287 25.9985 43.7061 25.1355 45.7547 25.1355H78.1512C80.1523 25.1369 81.1074 25.9985 81.0139 27.7202ZM78.9891 39.9388V27.7202C78.943 27.3949 78.6637 27.2301 78.1512 27.2301H45.7547C45.2422 27.2301 44.9629 27.3935 44.9154 27.7202V39.9388C44.9615 40.2181 45.2408 40.3577 45.7547 40.3577H78.1512C78.6637 40.3577 78.943 40.2195 78.9891 39.9388Z" fill="#23242F"/>
<path d="M30.6735 52.0889C30.0214 52.1811 29.3469 52.2746 28.6487 52.3668L26.5541 52.6461C25.2038 52.7857 23.8311 52.8793 22.4347 52.9253C22.108 52.9714 21.8524 53.1111 21.6667 53.3443C21.4796 53.5314 21.3874 53.7883 21.3874 54.1123C21.3874 54.3455 21.5033 54.5535 21.7365 54.7407C21.9697 54.9278 22.2253 55.0199 22.5045 55.0199C23.9009 54.9739 25.2499 54.8817 26.5541 54.7407L28.6487 54.534C29.4852 54.4418 30.2769 54.3245 31.0226 54.1849C31.3005 54.0913 31.5574 53.9279 31.7906 53.6947C31.9303 53.4616 31.9777 53.206 31.9303 52.9267C31.8828 52.6474 31.7208 52.4142 31.4415 52.2285C31.2083 52.0428 30.9514 51.9967 30.6735 52.0889Z" fill="#23242F"/>
<path d="M34.5834 61.3736C32.7206 61.6529 30.7433 61.9098 28.6487 62.1416L26.5541 62.3511C25.9942 62.3511 25.3895 62.3748 24.7388 62.4209C24.4595 62.4684 24.2263 62.5829 24.0406 62.77C23.8549 63.0032 23.785 63.2825 23.8311 63.6092C23.8311 63.841 23.9233 64.0742 24.1104 64.3074C24.3422 64.4917 24.5991 64.563 24.8784 64.5155C25.4831 64.4694 26.0416 64.4457 26.5541 64.4457L28.6501 64.2376C30.8844 64.0519 32.979 63.7726 34.9339 63.3998C35.2132 63.3523 35.445 63.1889 35.6321 62.911C35.8165 62.6778 35.8863 62.4209 35.8402 62.1416C35.7466 61.8637 35.5847 61.6543 35.3515 61.5146C35.1183 61.3275 34.8627 61.2814 34.5834 61.3736Z" fill="#23242F"/>
<path d="M94.9793 54.1835C95.6314 54.2757 96.3059 54.3692 97.0041 54.4614L99.0987 54.6708C100.495 54.8566 101.96 54.9739 103.496 55.0199C103.775 55.0199 104.032 54.9278 104.264 54.7407C104.497 54.5535 104.613 54.3455 104.613 54.1123C104.613 53.7869 104.521 53.5314 104.335 53.3443C104.148 53.1111 103.915 52.9714 103.637 52.9253C102.053 52.8332 100.541 52.7159 99.0987 52.5762L97.0055 52.3654C96.4008 52.2732 95.8409 52.1797 95.3298 52.0875C95.0505 51.9953 94.7936 52.0414 94.5618 52.2271C94.2811 52.4129 94.1191 52.6461 94.0716 52.9253C94.0242 53.2046 94.094 53.4602 94.2811 53.6934C94.4668 53.9266 94.7 54.0913 94.9793 54.1835Z" fill="#23242F"/>
<path d="M91.0694 63.3984C92.8847 63.7251 94.862 64.0044 97.0041 64.2362L99.0987 64.3758C99.7494 64.4233 100.424 64.4694 101.122 64.5155C101.401 64.563 101.658 64.4917 101.891 64.3074C102.077 64.0742 102.169 63.841 102.169 63.6092C102.217 63.2811 102.147 63.0032 101.961 62.77C101.774 62.5829 101.542 62.4684 101.263 62.4209C100.47 62.3734 99.7494 62.3273 99.0987 62.2812L97.0041 62.0718C95.0016 61.8847 93.1388 61.6529 91.4185 61.3736C91.1392 61.2814 90.8823 61.3275 90.6491 61.5146C90.4173 61.6529 90.2762 61.8637 90.2301 62.1416C90.138 62.4209 90.1841 62.6778 90.3712 62.9096C90.5569 63.1889 90.7901 63.3523 91.0694 63.3984Z" fill="#23242F"/>
</g>
</g>
<path id="Subtract" fill-rule="evenodd" clip-rule="evenodd" d="M54.6565 0.000244141L15.5237 23.0683V50.2704H21.886V26.7034L61.605 3.28971L101.324 26.7034V50.2714H107.686V23.0683L68.5536 0.000244141H54.6565ZM101.324 79.6375V68.4246H107.686V79.6375V85.9999H101.324H21.886H15.5237V79.6375V68.4237H21.886V79.6375H101.324Z" fill="#23242F"/>
</g>
</svg>
