<svg width="108" height="78" viewBox="0 0 108 78" fill="none" xmlns="http://www.w3.org/2000/svg">
<g id="eco-hiting">
<path id="Vector" d="M74.2488 62.1999L60.0908 49.5296L74.3055 38.9375V42.3167L74.7019 42.7143V42.6575C75.3056 43.2255 75.9852 43.5094 76.7407 43.5094C77.9866 43.4719 79.0252 43.1119 79.8554 42.4303C80.9507 41.4455 82.1966 40.9537 83.5931 40.9537C84.6884 40.8787 86.0476 41.5977 87.6707 43.1119C88.9539 44.1717 90.3516 44.7021 91.8614 44.7021C92.9941 44.6635 94.1833 44.1535 95.4293 43.1687C97.0535 41.8056 98.45 41.1434 99.62 41.1809C100.866 41.1434 102.338 41.7295 104.037 42.9415C105.057 43.6605 106.019 44.116 106.926 44.3045C107.189 44.342 107.379 44.4556 107.492 44.6453C107.643 44.8725 107.699 45.0997 107.662 45.3268C107.586 45.5915 107.453 45.7812 107.265 45.8948C107.076 46.0459 106.869 46.1038 106.642 46.0652C105.51 45.838 104.301 45.27 103.018 44.3613C101.696 43.4151 100.583 42.9415 99.6767 42.9415H99.62C98.7513 42.9801 97.7319 43.4901 96.5619 44.4749C94.9388 45.8005 93.3724 46.4627 91.8614 46.4627C89.8986 46.5388 88.1237 45.838 86.538 44.3613C85.3295 43.3016 84.3475 42.7518 83.5931 42.7143C82.6111 42.7143 81.7617 43.0551 81.0447 43.7366H80.9881C79.9313 44.7589 78.5336 45.27 76.7973 45.27C75.9286 45.3075 75.0983 45.0803 74.3055 44.5885V49.8704L74.4754 50.0408C74.5139 50.0408 74.532 50.0601 74.532 50.0976C75.1731 50.6269 75.8538 50.8927 76.5708 50.8927C77.8167 50.8177 78.836 50.4383 79.6289 49.7568C80.6857 48.8106 81.9508 48.3369 83.4233 48.3369C84.48 48.2233 85.8392 48.9242 87.5008 50.4383C88.7467 51.5367 90.1251 52.0853 91.6349 52.0853C92.7676 52.0467 93.9749 51.4981 95.2594 50.4383C96.8077 49.1127 98.185 48.4698 99.3935 48.5073C100.677 48.4687 102.168 49.0753 103.867 50.3247C104.849 51.0063 105.812 51.4413 106.756 51.631C106.945 51.6685 107.133 51.8014 107.322 52.0285C107.435 52.2182 107.473 52.4454 107.435 52.7101C107.398 52.9373 107.265 53.1076 107.039 53.2212C106.85 53.4109 106.642 53.4666 106.416 53.3916C105.283 53.1644 104.075 52.5965 102.791 51.6878C101.508 50.7791 100.376 50.3247 99.3935 50.3247C98.5633 50.3633 97.5439 50.8734 96.3354 51.8582C94.7112 53.1837 93.1447 53.846 91.6349 53.846C89.672 53.8834 87.8972 53.1644 86.3115 51.6878C85.1415 50.6655 84.1787 50.135 83.4233 50.0976C82.4412 50.0976 81.5736 50.4383 80.8182 51.1198C79.7614 52.066 78.3456 52.5772 76.5708 52.6533C75.7779 52.6533 75.0224 52.4636 74.3055 52.0853V57.424C74.3429 57.4626 74.3995 57.5001 74.4754 57.5376C74.5139 57.5376 74.532 57.5569 74.532 57.5944C75.1731 58.1237 75.8538 58.3895 76.5708 58.3895C77.8167 58.3895 78.836 58.0487 79.6289 57.3672C80.6857 56.3449 81.9508 55.8338 83.4233 55.8338C84.48 55.7588 85.8392 56.4778 87.5008 57.9919C88.7467 59.0903 90.1251 59.639 91.6349 59.639C92.7676 59.6015 93.9749 59.071 95.2594 58.0487C96.8077 56.6857 98.185 56.0416 99.3935 56.1177C100.677 56.0428 102.168 56.6289 103.867 57.8783C104.849 58.5599 105.812 58.9949 106.756 59.1846C106.945 59.2221 107.133 59.355 107.322 59.5822C107.435 59.7719 107.473 59.9797 107.435 60.2069C107.398 60.4716 107.265 60.6613 107.039 60.7748C106.85 60.9259 106.642 60.9827 106.416 60.9452C105.283 60.7555 104.075 60.2069 102.791 59.2982C101.508 58.352 100.376 57.8783 99.3935 57.8783C98.5633 57.9158 97.5439 58.4077 96.3354 59.355C94.7112 60.718 93.1447 61.3996 91.6349 61.3996C89.672 61.4382 87.8972 60.7374 86.3115 59.2982C85.1415 58.1998 84.1787 57.6319 83.4233 57.5944C82.4412 57.5944 81.5736 57.9351 80.8182 58.6167C79.7614 59.639 78.3456 60.1501 76.5708 60.1501C75.7779 60.1876 75.0043 60.0172 74.2488 59.639V62.1999Z" fill="#23242F"/>
<path id="Union" fill-rule="evenodd" clip-rule="evenodd" d="M37.5947 16.1628C37.2876 16.1628 37.0322 16.2951 36.8666 16.5519C35.8439 17.6761 35.2999 18.9526 35.2525 20.3735C35.2049 21.7962 35.6559 23.3372 36.574 24.9895L36.5761 24.9931C37.9516 27.3907 38.0196 29.2019 36.9886 30.5353C36.8727 30.6555 36.788 30.7967 36.7475 30.9587C36.7088 31.1133 36.7144 31.2709 36.7531 31.4259C36.7647 31.7161 36.8952 31.9625 37.1234 32.1493C37.3428 32.3605 37.644 32.4417 37.9731 32.4417H38.0027L38.0317 32.436C38.2966 32.3836 38.5156 32.2279 38.6915 32.0089C39.5853 30.9801 40.02 29.7735 39.9915 28.4039C39.9631 27.041 39.4768 25.5329 38.5617 23.8858C37.8929 22.6717 37.5722 21.5827 37.5722 20.6132C37.5722 19.6502 37.8883 18.7852 38.5302 18.0086L38.5337 18.0043C38.7073 17.7863 38.8156 17.5425 38.8156 17.2756V17.2544L38.8127 17.2334C38.77 16.9312 38.657 16.6676 38.4569 16.4675C38.2366 16.2472 37.9301 16.1628 37.5947 16.1628ZM41.7026 16.1628C41.391 16.1628 41.1288 16.2981 40.9331 16.538C39.9018 17.6661 39.358 18.948 39.3199 20.3755C39.2819 21.7985 39.7469 23.3393 40.6828 24.991C42.0222 27.3869 42.0752 29.1997 41.0425 30.5352C40.8102 30.7751 40.7097 31.0735 40.7523 31.4054C40.7599 31.7287 40.9314 31.9851 41.2 32.1676C41.4361 32.3528 41.718 32.4417 42.0269 32.4417H42.0517L42.0761 32.4377C42.3678 32.3896 42.6121 32.2417 42.7994 32.0089C43.6926 30.9801 44.1273 29.7736 44.0989 28.4039C44.0707 27.0411 43.5847 25.5329 42.6696 23.8858C42.0008 22.6717 41.6801 21.5827 41.6801 20.6132C41.6801 19.6502 41.9962 18.7852 42.6381 18.0086L42.6416 18.0043C42.8187 17.7818 42.9141 17.525 42.8692 17.2473C42.8625 16.9304 42.7425 16.6559 42.4985 16.4554C42.2867 16.2508 42.0086 16.1628 41.7026 16.1628ZM46.1889 16.1628C45.8584 16.1628 45.5716 16.2855 45.3654 16.5379C44.3336 17.6665 43.7943 18.9492 43.7657 20.3775C43.7372 21.8002 44.2159 23.3402 45.1688 24.9906C46.4758 27.3922 46.5277 29.2112 45.518 30.549C45.3277 30.788 45.2383 31.0715 45.2383 31.383V31.4077L45.2423 31.4322C45.2875 31.7063 45.4056 31.9457 45.597 32.1371L45.6183 32.1583L45.6433 32.175C45.8985 32.3447 46.1719 32.4417 46.4592 32.4417H46.4839L46.5083 32.4377C46.7969 32.3901 47.0499 32.2463 47.2673 32.029L47.2747 32.0216L47.2815 32.0137C48.1786 30.9832 48.6101 29.7743 48.5719 28.4018C48.534 27.0389 48.0339 25.5311 47.1012 23.8848C46.4329 22.6711 46.1123 21.5824 46.1123 20.6132C46.1123 19.6544 46.4256 18.7928 47.0619 18.0188C47.2706 17.8058 47.4022 17.5442 47.3554 17.2477C47.3487 16.925 47.2246 16.6463 46.9716 16.4448C46.742 16.262 46.4789 16.1628 46.1889 16.1628ZM43.0539 35.6753C42.7454 35.6753 42.484 35.807 42.288 36.046C42.113 36.225 41.9958 36.4351 41.9472 36.6738L41.9457 36.6811L41.9446 36.6885C41.485 39.6969 40.2089 42.6425 38.1073 45.5288L38.0495 45.6083V45.6611C35.6973 48.851 34.4157 51.6541 34.2667 54.062C34.0492 56.5357 34.6367 58.6264 36.0496 60.3038V60.3546L36.1183 60.4382C37.5034 62.1218 39.3563 63.1291 41.6569 63.4637C44.0106 63.842 46.2452 62.9589 48.3464 60.8942C50.4042 58.8727 51.3968 56.7393 51.2471 54.5014C51.1704 52.4048 50.1286 49.739 48.1767 46.5228L48.175 46.52C46.3612 43.604 45.024 40.3112 44.1657 36.641C44.1509 36.3487 43.9701 36.1236 43.7321 35.9587C43.544 35.7796 43.3153 35.6753 43.0539 35.6753ZM40.0042 46.9067C41.3448 44.9917 42.3798 43.0583 43.1076 41.1074C43.9655 43.4794 45.0145 45.6771 46.2553 47.7015C47.9749 50.5314 48.8627 52.8206 48.968 54.583C48.9997 56.1707 48.2929 57.7341 46.7849 59.2773C45.2487 60.8141 43.6619 61.4255 42.0149 61.1905C40.2834 60.9474 38.9132 60.1908 37.8834 58.921L37.8808 58.9179C36.8578 57.6903 36.4057 56.1498 36.5447 54.2689L36.5455 54.2578V54.2059C36.719 52.2645 37.8045 49.8779 39.8568 47.0356H39.914L40.0042 46.9067Z" fill="#23242F"/>
<path id="Subtract" fill-rule="evenodd" clip-rule="evenodd" d="M35.8217 -0.000488281L0.328125 20.9224V72.2293V77.9998H6.09864H78.147H83.9175V72.2293V63.3252H78.147V72.2293H6.09864V24.2192L42.1228 2.98359L78.147 24.2192V37.9951H83.9175V20.9224L48.424 -0.000488281H35.8217Z" fill="#23242F"/>
</g>
</svg>
