<svg width="108" height="78" viewBox="0 0 108 78" fill="none" xmlns="http://www.w3.org/2000/svg">
<g id="eco-hiting">
<g id="Group 3">
<g id="Group">
<path id="Vector" d="M106.756 59.1846C105.812 58.9949 104.849 58.5599 103.867 57.8783C102.168 56.6289 100.677 56.0428 99.3935 56.1177C98.185 56.0416 96.8077 56.6857 95.2594 58.0487C93.9749 59.071 92.7676 59.6015 91.6349 59.639C90.1251 59.639 88.7467 59.0903 87.5008 57.9919C85.8392 56.4778 84.48 55.7588 83.4233 55.8338C81.9508 55.8338 80.6857 56.3449 79.6289 57.3672C78.836 58.0487 77.8167 58.3895 76.5708 58.3895C75.8538 58.3895 75.1731 58.1237 74.532 57.5944C74.532 57.5569 74.5139 57.5376 74.4754 57.5376C74.3995 57.5001 74.3429 57.4626 74.3055 57.424L106.756 59.1846ZM106.756 59.1846C106.945 59.2221 107.133 59.355 107.322 59.5822L106.756 59.1846ZM106.756 51.631C105.812 51.4413 104.849 51.0063 103.867 50.3247C102.168 49.0753 100.677 48.4687 99.3935 48.5073C98.185 48.4698 96.8077 49.1127 95.2594 50.4383C93.9749 51.4981 92.7676 52.0467 91.6349 52.0853C90.1251 52.0853 88.7467 51.5367 87.5008 50.4383C85.8392 48.9242 84.48 48.2233 83.4233 48.3369C81.9508 48.3369 80.6857 48.8106 79.6289 49.7568C78.836 50.4383 77.8167 50.8177 76.5708 50.8927C75.8538 50.8927 75.1731 50.6269 74.532 50.0976C74.532 50.0601 74.5139 50.0408 74.4754 50.0408L106.756 51.631ZM106.756 51.631C106.945 51.6685 107.133 51.8014 107.322 52.0285L106.756 51.631ZM73.2474 42.687V42.7541V44.5885V49.8704V50.3077L73.2961 50.3565L73.2474 50.3309V52.0853V57.424V57.8522L73.4392 58.0503L73.1908 57.9259V59.639V59.8331L61.7611 49.6045L73.2474 41.0454V42.3167V42.687Z" fill="#23242F" stroke="#23242F" stroke-width="2.11613"/>
</g>
<g id="Group_2">
<path id="Vector_2" fill-rule="evenodd" clip-rule="evenodd" d="M39.7566 46.7335H39.7025C37.5762 49.6523 36.4227 52.1387 36.2432 54.1926V54.2467C36.0995 56.1925 36.5676 57.814 37.6486 59.1113C38.7296 60.4442 40.1706 61.2366 41.9727 61.4895C43.738 61.7414 45.4147 61.0755 46.9994 59.4896C48.5486 57.9049 49.3053 56.2649 49.2696 54.571C49.1615 52.7332 48.2426 50.3906 46.513 47.5443C45.1433 45.3098 44.0082 42.8602 43.1078 40.1933C42.3867 42.3911 41.27 44.5715 39.7566 46.7335ZM43.5402 36.1935C43.7564 36.3373 43.8645 36.4995 43.8645 36.68C44.7293 40.3912 46.0806 43.7251 47.9183 46.6795C49.8642 49.8858 50.8728 52.4986 50.9452 54.5169C51.089 56.6422 50.1528 58.6962 48.1345 60.6788C46.0806 62.697 43.9369 63.5251 41.7024 63.1651C39.469 62.8408 37.6853 61.8679 36.3513 60.2463V60.1923C34.946 58.5708 34.3515 56.5341 34.5677 54.0845C34.7114 51.7419 35.973 48.968 38.3512 45.7606V45.7066C40.4765 42.7878 41.7748 39.7977 42.2429 36.7341C42.2797 36.5535 42.3694 36.3914 42.5132 36.2476C42.657 36.0671 42.8375 35.9773 43.0537 35.9773C43.2342 35.9773 43.3964 36.0498 43.5402 36.1935ZM38.2431 16.681C38.3869 16.8248 38.4777 17.0227 38.5134 17.2756C38.5134 17.4561 38.441 17.6356 38.2972 17.8161C36.9275 19.4733 36.9275 21.5457 38.2972 24.032C40.0993 27.2751 40.1533 29.8696 38.4593 31.8154C38.3156 31.9959 38.1534 32.104 37.9729 32.1397C37.6843 32.1397 37.468 32.0673 37.3243 31.9235C37.1437 31.7797 37.054 31.5992 37.054 31.383C36.9816 31.1311 37.0356 30.9149 37.2162 30.7344C38.3696 29.2566 38.2431 27.2924 36.8378 24.8428C35.0357 21.5997 35.1265 18.8972 37.1081 16.7351C37.2162 16.5546 37.3783 16.4648 37.5945 16.4648C37.8832 16.4648 38.0994 16.5373 38.2431 16.681ZM41.7024 16.4648C41.9543 16.4648 42.1532 16.5373 42.297 16.681C42.4775 16.8248 42.5672 17.0227 42.5672 17.2756C42.6029 17.4561 42.5489 17.6356 42.4051 17.8161C41.0354 19.4733 41.0354 21.5457 42.4051 24.032C44.2072 27.2751 44.2601 29.8696 42.5672 31.8154C42.4235 31.9959 42.2429 32.104 42.0267 32.1397C41.7748 32.1397 41.5576 32.0673 41.3781 31.9235C41.1619 31.7797 41.0538 31.5992 41.0538 31.383C41.0171 31.1311 41.0895 30.9149 41.27 30.7344C42.4235 29.2566 42.3154 27.2924 40.9457 24.8428C39.108 21.5997 39.1804 18.8972 41.1619 16.7351C41.3057 16.5556 41.4862 16.4648 41.7024 16.4648ZM46.1887 16.4648C46.4049 16.4648 46.6027 16.5373 46.7832 16.681C46.9638 16.8248 47.0535 17.0227 47.0535 17.2756C47.0892 17.4561 47.0178 17.6356 46.8373 17.8161C45.4676 19.4733 45.4676 21.5457 46.8373 24.032C48.675 27.2751 48.7475 29.8696 47.0535 31.8154C46.873 31.9959 46.6751 32.104 46.4589 32.1397C46.2427 32.1397 46.0265 32.0673 45.8103 31.9235C45.6665 31.7797 45.5757 31.5992 45.5401 31.383C45.5401 31.1311 45.6114 30.9149 45.7563 30.7344C46.874 29.2566 46.7659 27.2924 45.432 24.8428C43.5585 21.5997 43.6126 18.8972 45.5941 16.7351C45.7379 16.5556 45.9368 16.4648 46.1887 16.4648Z" fill="#23242F" stroke="#23242F" stroke-width="0.604026"/>
</g>
</g>
<path id="Subtract" fill-rule="evenodd" clip-rule="evenodd" d="M35.8217 -0.000488281L0.328125 20.9223V72.2293V77.9998H6.09864H78.147H83.9175V72.2293V63.3252H78.147V72.2293H6.09864V24.2192L42.1228 2.98359L78.147 24.2192V37.9951H83.9175V20.9223L48.424 -0.000488281H35.8217Z" fill="#23242F"/>
</g>
</svg>
