<svg width="242" height="35" viewBox="0 0 242 35" fill="none" xmlns="http://www.w3.org/2000/svg">
<path id="Vector" fill-rule="evenodd" clip-rule="evenodd" d="M132.704 16.2523C132.704 16.2523 130.349 14.8143 128.894 14.2579C128.894 14.2579 124.387 12.1947 123.493 11.2132C123.493 11.2132 121.736 9.57818 122.765 7.67916C122.765 7.67916 123.195 6.43652 125.051 6.43652C125.051 6.43652 127.468 6.56779 127.468 8.52946V11.2967H136.128L136.112 7.22119C136.112 7.22119 136.778 0.547028 125.912 0.25315C125.912 0.25315 117.366 -0.301794 114.915 4.24511C114.915 4.24511 113.953 5.25952 113.953 8.79202V11.3444C113.953 11.3444 113.855 14.2892 115.377 16.1867C115.377 16.1867 116.238 17.4308 118.358 18.8033C118.358 18.8033 122.664 21.0931 125.248 22.4044C125.248 22.4044 127.856 23.8753 127.513 26.2158C127.513 26.2158 127.3 28.6191 124.781 28.5206C124.781 28.5206 122.478 28.4192 122.478 26.0622V23.2965H113.25V27.3138C113.25 27.3138 112.992 34.9964 124.849 34.9964C124.849 34.9964 136.179 35.2231 136.708 27.1124V23.841C136.706 23.841 137.108 18.8704 132.704 16.2523ZM88.3692 1.20937L85.4695 19.1583H84.7914L82.0217 1.37048H67.5566L66.8316 33.8746H75.3962L75.4989 9.38425H76.1725L80.7123 33.8701H89.7224L94.2063 9.3932H94.8028L95.0097 33.8746H103.62L102.692 1.20937H88.3692ZM37.3865 1.34513L31.6883 33.8373H40.9084L44.2838 8.64433H45.0419L48.4158 33.8373H57.6343L51.9376 1.34513H37.3865ZM230.851 15.8048V20.5979H233.216V25.743C233.216 28.2581 231.04 28.3043 231.04 28.3043C228.394 28.3043 228.494 25.9145 228.494 25.9145V8.11773C228.494 6.28435 230.842 6.1859 230.842 6.1859C233.096 6.1859 233.111 8.37283 233.111 8.37283V11.0789H241.792C242.076 5.79655 241.009 4.51811 241.009 4.51811C238.856 -0.258523 230.709 0.00253469 230.709 0.00253469C218.191 0.00253469 219.58 9.49017 219.58 9.49017V26.6977C219.849 35.5961 232.185 34.6921 232.393 34.6846C237.88 34.0849 239.537 32.3619 239.537 32.3619C241.062 31.2431 241.455 29.6932 241.455 29.6932C241.891 28.7906 242 25.9145 242 25.9145V15.8048H230.851ZM202.077 21.0931H201.699L192.89 1.21832H182.35V33.8776H190.928L190.415 14.0057H190.798L199.925 33.8776H210.145V1.21533H201.458L202.077 21.0931ZM161.411 25.74C161.411 25.74 161.534 28.4207 159.018 28.4207C159.018 28.4207 156.372 28.5609 156.372 25.8071L156.345 1.23771H146.936V25.6117C146.936 25.6117 145.971 34.8368 159.151 34.8368C159.151 34.8368 170.605 34.971 170.605 26.0353V1.2392H161.411V25.74ZM19.4493 16.2523C19.4493 16.2523 17.0979 14.8143 15.6405 14.2593C15.6405 14.2593 11.137 12.1977 10.2429 11.2146C10.2429 11.2146 8.4865 9.57668 9.51648 7.68214C9.51648 7.68214 9.94539 6.4395 11.8 6.4395C11.8 6.4395 14.2179 6.56928 14.2179 8.53095V11.2982H22.8806L22.864 7.22119C22.864 7.22119 23.5255 0.547027 12.6638 0.254641C12.6638 0.254641 11.8453 0.202425 10.6446 0.262096C10.6446 0.262096 4.06451 0.61117 1.71156 4.17649C1.69796 4.20334 1.67833 4.22274 1.66474 4.24661C1.66474 4.24661 0.704225 5.25951 0.704225 8.79351V11.3459C0.704225 11.3459 0.604547 14.2907 2.12838 16.1882C2.12838 16.1882 2.98922 17.4323 5.1096 18.8047C5.1096 18.8047 9.41378 21.0946 11.9978 22.4059C11.9978 22.4059 14.609 23.8738 14.2632 26.2173C14.2632 26.2173 14.0502 28.6206 11.5327 28.5221C11.5327 28.5221 9.22954 28.4207 9.22954 26.0637V23.2965H0.000449993V27.3168C0.000449993 27.3168 -0.2578 34.9994 11.5991 34.9994C11.5991 34.9994 22.9259 35.2261 23.459 27.1154V23.8469C23.459 23.8439 23.8547 18.8704 19.4493 16.2523Z" fill="#23242F"/>
</svg>
