<svg width="31" height="31" viewBox="0 0 31 31" fill="none" xmlns="http://www.w3.org/2000/svg">
<g id="Frame 25">
<g id="Group">
<g id="_Radial_Repeat_">
<path id="Vector" d="M23.1099 17.6755C23.1541 17.6789 23.1541 17.679 23.1541 17.6791L23.1541 17.6793L23.154 17.6802L23.1537 17.6836L23.1526 17.697C23.1515 17.7087 23.1499 17.7259 23.1476 17.7484C23.143 17.7934 23.1358 17.8591 23.1249 17.9424C23.1032 18.1092 23.0673 18.3466 23.0104 18.6298C22.8965 19.196 22.6983 19.9466 22.3607 20.682C22.0233 21.4172 21.5454 22.1398 20.8709 22.6471C20.1952 23.1552 19.3246 23.4453 18.2071 23.3183L18.2071 23.3183C17.4705 23.2339 16.9779 22.8999 16.6562 22.4453C16.3356 21.9924 16.1865 21.4228 16.1289 20.868C16.0713 20.3128 16.1049 19.7689 16.1527 19.3643C16.1766 19.1618 16.2042 18.9939 16.2258 18.8765C16.2365 18.8178 16.2458 18.7717 16.2525 18.7403L16.2602 18.7042L16.2623 18.6949L16.2629 18.6925L16.263 18.6918L16.2631 18.6917L16.3063 18.7017L16.2631 18.6916L16.3498 18.6936L16.3499 18.6936L16.35 18.6936L16.35 18.6937L16.3501 18.6943L16.3506 18.6969L16.353 18.708C16.3551 18.7178 16.3586 18.7325 16.3636 18.7514C16.3735 18.7891 16.3896 18.8435 16.4138 18.9094C16.4623 19.0413 16.5432 19.2187 16.673 19.4002C16.9319 19.7623 17.386 20.1427 18.1707 20.2118C19.525 20.3311 20.7497 19.6935 21.6393 19.0209C22.0835 18.685 22.4427 18.3415 22.6908 18.082C22.8148 17.9523 22.911 17.8436 22.9761 17.7675C23.0087 17.7294 23.0335 17.6995 23.0501 17.6791L23.0688 17.6559L23.0734 17.6501L23.0745 17.6486L23.0748 17.6483L23.0749 17.6482L23.1099 17.6755ZM23.1099 17.6755L23.1541 17.6789L23.1655 17.5321L23.0749 17.6482L23.1099 17.6755Z" fill="#161415" stroke="#161415" stroke-width="0.0887611"/>
</g>
<g id="_Radial_Repeat_-2">
<path id="Vector_2" d="M16.3274 10.1501C16.3309 10.1059 16.3309 10.1059 16.331 10.1059L16.3312 10.1059L16.3321 10.106L16.3355 10.1062L16.3489 10.1074C16.3606 10.1084 16.3778 10.1101 16.4003 10.1123C16.4452 10.1169 16.5109 10.1242 16.5943 10.1351C16.7609 10.1567 16.9983 10.1927 17.2814 10.2496C17.8474 10.3636 18.5977 10.5619 19.3329 10.8995C20.0678 11.2371 20.7902 11.7151 21.2973 12.3899C21.8052 13.0658 22.0952 13.9367 21.9682 15.0546L21.9682 15.0546C21.8838 15.7915 21.55 16.2842 21.0956 16.606C20.6428 16.9267 20.0734 17.0759 19.5188 17.1335C18.9638 17.1912 18.4201 17.1575 18.0156 17.1097C17.8132 17.0857 17.6454 17.0582 17.528 17.0366C17.4693 17.0258 17.4233 17.0165 17.3918 17.0099L17.3558 17.0021L17.3464 17L17.344 16.9995L17.3434 16.9993L17.3432 16.9993L17.3532 16.9561L17.3431 16.9993L17.3452 16.9126L17.3451 16.9124L17.3452 16.9124L17.3452 16.9124L17.3458 16.9123L17.3485 16.9118L17.3595 16.9094C17.3694 16.9072 17.384 16.9038 17.4029 16.8988C17.4406 16.8888 17.495 16.8728 17.5609 16.8485C17.6928 16.8001 17.87 16.7191 18.0515 16.5892C18.4134 16.3303 18.7937 15.876 18.8628 15.091C18.9796 13.7363 18.3422 12.5111 17.6704 11.6212C17.335 11.1768 16.9921 10.8174 16.733 10.5692C16.6035 10.4452 16.4951 10.349 16.4191 10.2838C16.3811 10.2513 16.3512 10.2265 16.3309 10.2099L16.3078 10.1912L16.3019 10.1865L16.3005 10.1854L16.3002 10.1851L16.3001 10.1851L16.3274 10.1501ZM16.3274 10.1501L16.3309 10.1059L16.1843 10.0945L16.3001 10.1851L16.3274 10.1501Z" fill="#161415" stroke="#161415" stroke-width="0.0887611"/>
</g>
<g id="_Radial_Repeat_-3">
<path id="Vector_3" d="M13.7019 11.2931L13.7019 11.2931C12.5844 11.166 11.7138 11.4561 11.0381 11.9643C10.3636 12.4715 9.8857 13.1942 9.54826 13.9294C9.21071 14.6648 9.01248 15.4153 8.89861 15.9816C8.84165 16.2648 8.80574 16.5022 8.78407 16.6689C8.77323 16.7523 8.76594 16.818 8.76136 16.8629C8.75907 16.8854 8.75745 16.9027 8.75641 16.9144L8.75525 16.9277L8.75497 16.9312L8.7549 16.9321L8.75488 16.9323C8.75488 16.9324 8.75487 16.9324 8.79912 16.9358M13.7019 11.2931L15.559 15.9177L15.559 15.9177L15.5589 15.9171L15.5584 15.9144L15.556 15.9034C15.5538 15.8935 15.5504 15.8788 15.5454 15.86C15.5354 15.8222 15.5194 15.7678 15.4952 15.7019C15.4467 15.57 15.3658 15.3927 15.236 15.2111C14.9771 14.8491 14.523 14.4687 13.7382 14.3995C12.384 14.2802 11.1593 14.9178 10.2697 15.5904C9.82545 15.9263 9.46626 16.2698 9.21816 16.5293C9.09414 16.6591 8.99795 16.7678 8.93284 16.8439C8.90029 16.882 8.87552 16.9119 8.85893 16.9323L8.84023 16.9554L8.83558 16.9613L8.83444 16.9627L8.83417 16.9631L8.83412 16.9631L8.79912 16.9358M13.7019 11.2931C14.4385 11.3775 14.931 11.7114 15.2528 12.166M13.7019 11.2931L15.2528 12.166M8.79912 16.9358L8.75487 16.9324L8.7435 17.0792L8.83411 16.9631L8.79912 16.9358ZM15.2528 12.166C15.5734 12.6189 15.7225 13.1886 15.7801 13.7433M15.2528 12.166L15.7801 13.7433M15.7801 13.7433C15.8377 14.2985 15.8041 14.8425 15.7563 15.2471M15.7801 13.7433L15.7563 15.2471M15.7563 15.2471C15.7323 15.4496 15.7048 15.6175 15.6832 15.7348M15.7563 15.2471L15.6832 15.7348M15.6832 15.7348C15.6724 15.7935 15.6631 15.8396 15.6565 15.8711M15.6832 15.7348L15.6565 15.8711M15.6565 15.8711L15.6488 15.9071M15.6565 15.8711L15.6488 15.9071M15.6488 15.9071L15.6467 15.9165M15.6488 15.9071L15.6467 15.9165M15.6467 15.9165L15.6461 15.9189M15.6467 15.9165L15.6461 15.9189M15.6461 15.9189L15.646 15.9195M15.6461 15.9189L15.646 15.9195M15.646 15.9195L15.6459 15.9197M15.646 15.9195L15.6459 15.9197M15.6459 15.9197L15.6027 15.9097L15.6459 15.9197Z" fill="#161415" stroke="#161415" stroke-width="0.0887611"/>
</g>
<g id="_Radial_Repeat_-4">
<path id="Vector_4" d="M15.5884 24.4615C15.5849 24.5057 15.5849 24.5057 15.5848 24.5057L15.5846 24.5057L15.5837 24.5056L15.5803 24.5053L15.5669 24.5042C15.5552 24.5031 15.538 24.5015 15.5155 24.4992C15.4706 24.4947 15.4049 24.4874 15.3215 24.4765C15.1549 24.4548 14.9176 24.4189 14.6344 24.3619C14.0684 24.248 13.3181 24.0497 12.5829 23.7121C11.848 23.3745 11.1256 22.8965 10.6185 22.2217C10.1106 21.5458 9.82058 20.6749 9.94757 19.557L9.94757 19.557C10.032 18.8201 10.3658 18.3274 10.8202 18.0056C11.273 17.6849 11.8424 17.5357 12.397 17.4781C12.952 17.4204 13.4958 17.454 13.9002 17.5019C14.1026 17.5258 14.2705 17.5534 14.3878 17.575C14.4465 17.5858 14.4925 17.5951 14.524 17.6017L14.56 17.6095L14.5694 17.6116L14.5718 17.6121L14.5724 17.6123L14.5726 17.6123L14.5626 17.6555L14.5727 17.6123L14.5706 17.699L14.5707 17.6992L14.5707 17.6992L14.5706 17.6992L14.5706 17.6992L14.57 17.6993L14.5673 17.6998L14.5563 17.7022C14.5464 17.7044 14.5318 17.7078 14.5129 17.7128C14.4752 17.7228 14.4208 17.7388 14.3549 17.7631C14.223 17.8115 14.0458 17.8925 13.8643 18.0224C13.5024 18.2813 13.1221 18.7356 13.053 19.5206C12.9337 20.8753 13.5711 22.1005 14.2435 22.9904C14.5792 23.4348 14.9226 23.7941 15.1821 24.0423C15.3117 24.1664 15.4204 24.2626 15.4965 24.3277C15.5345 24.3603 15.5645 24.3851 15.5848 24.4017L15.608 24.4204L15.6138 24.425L15.6153 24.4262L15.6156 24.4264L15.6157 24.4265L15.5884 24.4615ZM15.5884 24.4615L15.5849 24.5057L15.7317 24.5171L15.6157 24.4265L15.5884 24.4615Z" fill="#161415" stroke="#161415" stroke-width="0.0887611"/>
</g>
</g>
<g id="Subtract">
<path fill-rule="evenodd" clip-rule="evenodd" d="M13.9625 3.2991L1.64404 10.5606V28.0058V29.7558H3.39404H28.0052H29.7552V28.0058V10.5606L17.4367 3.2991H13.9625ZM15.6996 4.30654L28.0052 11.5605V28.0058H3.39404V11.5605L15.6996 4.30654Z" fill="url(#paint0_linear_311_276)"/>
<path fill-rule="evenodd" clip-rule="evenodd" d="M13.9625 3.2991L1.64404 10.5606V28.0058V29.7558H3.39404H28.0052H29.7552V28.0058V10.5606L17.4367 3.2991H13.9625ZM15.6996 4.30654L28.0052 11.5605V28.0058H3.39404V11.5605L15.6996 4.30654Z" fill="#161415"/>
</g>
</g>
<defs>
<linearGradient id="paint0_linear_311_276" x1="15.6996" y1="4.16994" x2="15.4411" y2="30.0007" gradientUnits="userSpaceOnUse">
<stop offset="0.0520833" stop-color="#7067ED"/>
<stop offset="0.59375" stop-color="#B4038F"/>
<stop offset="0.78125" stop-color="#EF883D"/>
</linearGradient>
</defs>
</svg>
