<svg width="161" height="43" viewBox="0 0 161 43" fill="none" xmlns="http://www.w3.org/2000/svg">
<path d="M54.8485 14.2749H58.6285L51.8823 32.6499H47.6035L40.8835 14.2749H44.6635L49.756 29.0274L54.8485 14.2749ZM67.0628 17.2412H66.1178L60.7103 32.6499H57.0615L63.6503 14.2749H69.504L76.0928 32.6499H72.444L67.0628 17.2412ZM61.0515 25.4574H71.7615V28.4237H61.0515V25.4574ZM88.6341 14.2749H92.4141L85.6679 32.6499H81.3891L74.6691 14.2749H78.4491L83.5416 29.0274L88.6341 14.2749ZM105.846 19.9449C105.846 19.1224 105.592 18.4662 105.084 17.9762C104.594 17.4862 103.824 17.2412 102.774 17.2412H98.8632V22.6749H102.774C103.474 22.6749 104.052 22.5699 104.507 22.3599C104.962 22.1324 105.294 21.8174 105.504 21.4149C105.732 20.9949 105.846 20.5049 105.846 19.9449ZM102.879 14.2749C104.367 14.2749 105.592 14.5374 106.554 15.0624C107.534 15.5699 108.261 16.2612 108.733 17.1362C109.223 17.9937 109.468 18.9299 109.468 19.9449C109.468 20.6274 109.346 21.3099 109.101 21.9924C108.856 22.6574 108.471 23.2699 107.946 23.8299C107.421 24.3724 106.738 24.8099 105.898 25.1424C105.076 25.4749 104.069 25.6412 102.879 25.6412H98.8632V32.6499H95.3195V14.2749H102.879ZM104.874 24.4599L109.836 32.6499H105.872L101.121 24.4599H104.874ZM121.471 17.2412H120.526L115.119 32.6499H111.47L118.059 14.2749H123.912L130.501 32.6499H126.852L121.471 17.2412ZM115.46 25.4574H126.17V28.4237H115.46V25.4574ZM145.313 8.10615V10.7574L141.428 12.9099L137.57 10.7574V8.10615L141.428 10.3899L145.313 8.10615ZM132.11 23.4624C132.11 22.0799 132.337 20.8199 132.792 19.6824C133.265 18.5274 133.921 17.5387 134.761 16.7162C135.601 15.8762 136.581 15.2287 137.701 14.7737C138.838 14.3187 140.063 14.0912 141.376 14.0912C143.266 14.0912 144.937 14.5462 146.39 15.4562C147.86 16.3487 148.962 17.6349 149.697 19.3149L146.731 20.1812C146.346 19.4462 145.865 18.8512 145.287 18.3962C144.727 17.9412 144.115 17.6087 143.45 17.3987C142.785 17.1887 142.111 17.0837 141.428 17.0837C140.308 17.0837 139.311 17.3549 138.436 17.8974C137.561 18.4224 136.878 19.1662 136.388 20.1287C135.916 21.0912 135.68 22.2024 135.68 23.4624C135.68 24.7224 135.916 25.8337 136.388 26.7962C136.878 27.7412 137.561 28.4849 138.436 29.0274C139.311 29.5699 140.308 29.8412 141.428 29.8412C142.128 29.8412 142.82 29.7362 143.502 29.5262C144.202 29.2987 144.85 28.9224 145.445 28.3974C146.04 27.8724 146.547 27.1724 146.967 26.2974L149.881 27.1112C149.128 29.0187 148.008 30.4537 146.521 31.4162C145.033 32.3612 143.318 32.8337 141.376 32.8337C140.063 32.8337 138.838 32.6062 137.701 32.1512C136.581 31.6962 135.601 31.0487 134.761 30.2087C133.921 29.3687 133.265 28.3799 132.792 27.2424C132.337 26.0874 132.11 24.8274 132.11 23.4624Z" fill="#23242F"/>
<path d="M28.3901 23.5757C28.4344 23.5791 28.4344 23.5792 28.4344 23.5792L28.4344 23.5795L28.4343 23.5803L28.434 23.5838L28.4329 23.5971C28.4318 23.6088 28.4302 23.6261 28.4279 23.6486C28.4233 23.6935 28.416 23.7592 28.4052 23.8426C28.3835 24.0093 28.3476 24.2467 28.2906 24.53C28.1768 25.0962 27.9785 25.8468 27.641 26.5822C27.3036 27.3173 26.8257 28.04 26.1512 28.5473C25.4755 29.0554 24.6049 29.3455 23.4874 29.2185L23.4873 29.2185C22.7507 29.134 22.2582 28.8001 21.9365 28.3455C21.6159 27.8926 21.4668 27.3229 21.4092 26.7682C21.3515 26.213 21.3851 25.669 21.433 25.2644C21.4569 25.062 21.4845 24.8941 21.506 24.7767C21.5168 24.718 21.5261 24.6719 21.5327 24.6404L21.5405 24.6044L21.5426 24.5951L21.5432 24.5926L21.5433 24.592L21.5433 24.5918L21.5866 24.6019L21.5434 24.5918L21.6301 24.5938L21.6302 24.5938L21.6302 24.5938L21.6302 24.5939L21.6303 24.5944L21.6309 24.5971L21.6332 24.6081C21.6354 24.618 21.6389 24.6327 21.6439 24.6515C21.6538 24.6893 21.6699 24.7437 21.6941 24.8096C21.7425 24.9415 21.8235 25.1189 21.9533 25.3004C22.2122 25.6624 22.6662 26.0429 23.451 26.112C24.8052 26.2313 26.03 25.5937 26.9196 24.9211C27.3638 24.5852 27.723 24.2417 27.9711 23.9822C28.0951 23.8524 28.1913 23.7438 28.2564 23.6676C28.289 23.6296 28.3137 23.5996 28.3303 23.5793L28.349 23.5561L28.3537 23.5502L28.3548 23.5488L28.3551 23.5485L28.3551 23.5484L28.3901 23.5757ZM28.3901 23.5757L28.4344 23.5791L28.4458 23.4323L28.3552 23.5484L28.3901 23.5757Z" fill="#23242F" stroke="#23242F" stroke-width="0.0887611"/>
<path d="M21.6077 16.0503C21.6111 16.006 21.6112 16.006 21.6112 16.0061L21.6115 16.0061L21.6124 16.0061L21.6158 16.0064L21.6291 16.0076C21.6408 16.0086 21.6581 16.0102 21.6806 16.0125C21.7255 16.0171 21.7912 16.0244 21.8745 16.0352C22.0412 16.0569 22.2785 16.0929 22.5617 16.1498C23.1277 16.2637 23.878 16.462 24.6132 16.7997C25.3481 17.1373 26.0705 17.6153 26.5776 18.2901C27.0855 18.966 27.3755 19.8369 27.2485 20.9548L27.2485 20.9548C27.1641 21.6916 26.8303 22.1843 26.3759 22.5062C25.9231 22.8269 25.3536 22.9761 24.7991 23.0337C24.2441 23.0914 23.7003 23.0577 23.2958 23.0099C23.0935 22.9859 22.9256 22.9584 22.8083 22.9368C22.7496 22.926 22.7035 22.9167 22.6721 22.9101L22.6361 22.9023L22.6267 22.9002L22.6243 22.8997L22.6237 22.8995L22.6235 22.8995L22.6335 22.8562L22.6234 22.8995L22.6254 22.8127L22.6254 22.8126L22.6254 22.8126L22.6255 22.8126L22.6261 22.8125L22.6287 22.8119L22.6398 22.8096C22.6496 22.8074 22.6643 22.8039 22.6832 22.799C22.7209 22.789 22.7753 22.7729 22.8412 22.7487C22.973 22.7002 23.1503 22.6193 23.3318 22.4894C23.6937 22.2305 24.074 21.7762 24.1431 20.9912C24.2599 19.6364 23.6225 18.4112 22.9507 17.5213C22.6153 17.0769 22.2724 16.7176 22.0133 16.4694C21.8838 16.3454 21.7753 16.2491 21.6994 16.184C21.6614 16.1515 21.6315 16.1267 21.6112 16.1101L21.5881 16.0914L21.5822 16.0867L21.5808 16.0856L21.5804 16.0853L21.5804 16.0853L21.6077 16.0503ZM21.6077 16.0503L21.6111 16.006L21.4646 15.9947L21.5804 16.0852L21.6077 16.0503Z" fill="#23242F" stroke="#23242F" stroke-width="0.0887611"/>
<path d="M18.9822 17.1931L18.9822 17.1931C17.8646 17.0661 16.994 17.3562 16.3184 17.8644C15.6438 18.3716 15.166 19.0943 14.8285 19.8294C14.491 20.5648 14.2928 21.3154 14.1789 21.8816C14.1219 22.1649 14.086 22.4023 14.0643 22.569C14.0535 22.6524 14.0462 22.7181 14.0416 22.763C14.0393 22.7855 14.0377 22.8028 14.0367 22.8145L14.0355 22.8278L14.0352 22.8313L14.0352 22.8322L14.0352 22.8324C14.0352 22.8325 14.0351 22.8325 14.0794 22.8359M18.9822 17.1931L20.8393 21.8178L20.8393 21.8177L20.8392 21.8172L20.8387 21.8145L20.8363 21.8035C20.8341 21.7936 20.8307 21.7789 20.8257 21.7601C20.8157 21.7223 20.7997 21.6679 20.7754 21.602C20.727 21.4701 20.646 21.2927 20.5162 21.1112C20.2574 20.7492 19.8033 20.3687 19.0185 20.2996C17.6643 20.1803 16.4396 20.8179 15.55 21.4905C15.1057 21.8264 14.7465 22.1699 14.4984 22.4294C14.3744 22.5592 14.2782 22.6678 14.2131 22.744C14.1806 22.782 14.1558 22.812 14.1392 22.8323L14.1205 22.8555L14.1158 22.8614L14.1147 22.8628L14.1144 22.8631L14.1144 22.8632L14.0794 22.8359M18.9822 17.1931C19.7188 17.2776 20.2113 17.6115 20.5331 18.0661M18.9822 17.1931L20.5331 18.0661M14.0794 22.8359L14.0351 22.8325L14.0238 22.9793L14.1144 22.8632L14.0794 22.8359ZM20.5331 18.0661C20.8536 18.519 21.0027 19.0887 21.0603 19.6434M20.5331 18.0661L21.0603 19.6434M21.0603 19.6434C21.118 20.1986 21.0844 20.7426 21.0365 21.1472M21.0603 19.6434L21.0365 21.1472M21.0365 21.1472C21.0126 21.3496 20.9851 21.5175 20.9635 21.6349M21.0365 21.1472L20.9635 21.6349M20.9635 21.6349C20.9527 21.6936 20.9434 21.7397 20.9368 21.7712M20.9635 21.6349L20.9368 21.7712M20.9368 21.7712L20.929 21.8072M20.9368 21.7712L20.929 21.8072M20.929 21.8072L20.9269 21.8165M20.929 21.8072L20.9269 21.8165M20.9269 21.8165L20.9264 21.819M20.9269 21.8165L20.9264 21.819M20.9264 21.819L20.9262 21.8196M20.9264 21.819L20.9262 21.8196M20.9262 21.8196L20.9262 21.8198M20.9262 21.8196L20.9262 21.8198M20.9262 21.8198L20.8829 21.8097L20.9262 21.8198Z" fill="#23242F" stroke="#23242F" stroke-width="0.0887611"/>
<path d="M20.8687 30.3615C20.8652 30.4058 20.8652 30.4058 20.8651 30.4058L20.8649 30.4058L20.864 30.4057L20.8605 30.4054L20.8472 30.4042C20.8355 30.4032 20.8182 30.4016 20.7958 30.3993C20.7508 30.3947 20.6852 30.3874 20.6018 30.3766C20.4352 30.3549 20.1978 30.319 19.9147 30.262C19.3487 30.1481 18.5984 29.9498 17.8632 29.6121C17.1283 29.2745 16.4059 28.7965 15.8988 28.1217C15.3909 27.4458 15.1009 26.575 15.2278 25.457L15.2278 25.457C15.3122 24.7202 15.6461 24.2275 16.1005 23.9056C16.5532 23.5849 17.1227 23.4358 17.6773 23.3781C18.2323 23.3205 18.776 23.3541 19.1805 23.4019C19.3829 23.4259 19.5507 23.4534 19.6681 23.475C19.7268 23.4858 19.7728 23.4951 19.8043 23.5017L19.8403 23.5095L19.8496 23.5116L19.8521 23.5122L19.8527 23.5123L19.8529 23.5124L19.8428 23.5556L19.8529 23.5124L19.8509 23.5991L19.8509 23.5992L19.8509 23.5992L19.8509 23.5992L19.8508 23.5992L19.8503 23.5993L19.8476 23.5999L19.8366 23.6022C19.8267 23.6044 19.812 23.6079 19.7932 23.6129C19.7555 23.6228 19.7011 23.6389 19.6352 23.6631C19.5033 23.7116 19.326 23.7926 19.1446 23.9224C18.7826 24.1814 18.4023 24.6356 18.3332 25.4207C18.214 26.7754 18.8514 28.0006 19.5237 28.8905C19.8595 29.3349 20.2029 29.6942 20.4623 29.9424C20.592 30.0664 20.7007 30.1627 20.7768 30.2278C20.8148 30.2603 20.8447 30.2851 20.8651 30.3017L20.8882 30.3204L20.8941 30.3251L20.8955 30.3262L20.8959 30.3265L20.896 30.3265L20.8687 30.3615ZM20.8687 30.3615L20.8652 30.4058L21.012 30.4172L20.896 30.3266L20.8687 30.3615Z" fill="#23242F" stroke="#23242F" stroke-width="0.0887611"/>
<path fill-rule="evenodd" clip-rule="evenodd" d="M19.2428 9.19922L6.92432 16.4607V33.9059V35.6559H8.67432H33.2854H35.0354V33.9059V16.4607L22.717 9.19922H19.2428ZM20.9799 10.2067L33.2854 17.4606V33.9059H8.67432V17.4606L20.9799 10.2067Z" fill="#23242F"/>
</svg>
