<svg width="113" height="51" viewBox="0 0 113 51" fill="none" xmlns="http://www.w3.org/2000/svg">
<g id="Group">
<path id="Vector" d="M24.7965 50.5C38.4797 50.5 49.5929 39.3198 49.5929 25.5055C49.5929 11.6906 38.4797 0.5 24.7965 0.5C11.092 0.5 0 11.6906 0 25.5055C0 39.3198 11.092 50.5 24.7965 50.5Z" fill="#23242F"/>
<path id="Vector_2" d="M23.7988 14.5322V36.4687H30.7104V34.4962H25.7909V14.5322H23.7988Z" fill="#FAF8F4"/>
<path id="Vector_3" d="M16.878 20.5171C18.5223 20.5171 19.8478 19.1681 19.8478 17.5206C19.8478 15.8718 18.5223 14.5176 16.878 14.5176C15.2337 14.5176 13.9082 15.8718 13.9082 17.5206C13.9082 19.1694 15.2337 20.5171 16.878 20.5171Z" fill="#FAF8F4"/>
<path id="Vector_4" d="M25.7907 4.58089C25.5315 4.56794 25.0388 4.55176 24.8033 4.55176C13.3578 4.55176 4.04297 13.9537 4.04297 25.4952C4.04297 31.1012 6.20183 36.3556 10.1122 40.307C14.0385 44.2493 19.2487 46.4276 24.8033 46.4276C30.3368 46.4276 35.5457 44.2493 39.465 40.307C43.385 36.3556 45.5541 31.1012 45.5541 25.4952V24.5637H44.7143H30.7301V26.4915H43.5768C43.5768 26.5335 43.5768 26.7381 43.5678 26.7912C42.9147 36.6579 34.7476 44.4727 24.8033 44.4727C19.7696 44.4727 15.0496 42.4976 11.4973 38.9107C7.93341 35.3387 5.96959 30.5801 5.96959 25.4945C5.96959 20.4382 7.93341 15.655 11.4973 12.0719C15.0496 8.49212 19.7696 6.51709 24.8033 6.51709C25.0202 6.51709 25.5476 6.51709 25.7907 6.53003V4.58089Z" fill="#FAF8F4"/>
<path id="Vector_5" d="M68.2412 8.91674H60.79V41.4638H83.6759V35.1282H68.2412V8.91674ZM100.067 29.0607H106.136V34.7515C105.017 35.1813 102.835 35.6099 100.759 35.6099C94.0526 35.6099 91.8187 32.1731 91.8187 25.1928C91.8187 18.5362 93.9461 14.6114 100.652 14.6114C104.379 14.6114 106.508 15.7934 108.262 18.0494L112.895 13.7517C110.073 9.67348 105.122 8.43835 100.493 8.43835C90.0588 8.43835 84.578 14.1842 84.578 25.1385C84.578 36.0397 89.5276 41.9467 100.441 41.9467C105.443 41.9467 110.34 40.6585 113 38.7792V22.9906H100.067V29.0607Z" fill="#23242F"/>
</g>
</svg>
